<?xml version="1.0" standalone="no"?>
<!DOCTYPE svg PUBLIC "-//W3C//DTD SVG 20010904//EN"
 "http://www.w3.org/TR/2001/REC-SVG-20010904/DTD/svg10.dtd">
<svg version="1.0" xmlns="http://www.w3.org/2000/svg"
 width="235.000000pt" height="237.000000pt" viewBox="0 0 235.000000 237.000000"
 preserveAspectRatio="xMidYMid meet">
<metadata>
Created by potrace 1.16, written by Peter Selinger 2001-2019
</metadata>
<g transform="translate(0.000000,237.000000) scale(0.100000,-0.100000)"
fill="#000000" stroke="none">
<path d="M1135 2099 c-52 -12 -84 -44 -138 -138 -225 -387 -437 -767 -451
-807 -65 -197 -18 -453 112 -611 34 -43 34 -43 2 -73 -18 -16 -38 -30 -45 -30
-15 0 -81 85 -123 160 -36 64 -82 225 -82 288 0 50 -13 48 -36 -6 -8 -20 -54
-104 -102 -187 -85 -147 -87 -151 -87 -216 0 -57 4 -71 29 -103 16 -21 47 -47
70 -57 39 -18 82 -19 901 -19 819 0 862 1 901 19 62 28 97 80 102 152 4 56 2
63 -52 161 -57 103 -57 103 -45 182 15 100 6 277 -19 371 -78 290 -289 528
-563 635 -71 27 -71 27 -121 116 -59 106 -96 147 -147 163 -43 13 -51 13 -106
0z m206 -375 c135 -31 268 -99 368 -189 91 -83 178 -224 221 -360 28 -90 38
-259 20 -358 -14 -79 -60 -204 -92 -251 -53 -77 -93 -126 -103 -126 -6 0 -24
14 -40 30 -21 22 -27 35 -20 45 114 161 146 246 153 402 5 129 -12 223 -58
321 -103 218 -280 351 -515 386 -80 12 -80 12 -83 64 -3 52 -3 52 38 52 23 0
72 -7 111 -16z m-60 -254 c78 -15 186 -69 248 -126 69 -63 114 -132 147 -231
23 -69 26 -89 22 -178 -3 -70 -11 -117 -27 -156 -25 -65 -78 -148 -98 -156 -9
-3 -28 8 -46 26 -32 31 -32 32 -15 59 62 98 73 133 73 248 0 107 -1 112 -38
186 -149 303 -575 303 -724 2 -31 -64 -37 -88 -41 -159 -5 -96 19 -196 63
-254 14 -19 25 -39 25 -45 0 -15 -52 -66 -66 -66 -19 0 -59 56 -95 135 -29 61
-33 81 -37 176 -5 129 15 210 76 304 119 184 324 274 533 235z m13 -281 c53
-27 82 -54 113 -106 46 -78 40 -201 -12 -260 -24 -28 -24 -28 -61 9 -34 33
-36 39 -26 65 25 64 18 117 -20 159 -77 83 -209 51 -239 -60 -9 -31 -7 -48 6
-84 17 -44 17 -44 -19 -81 -37 -36 -37 -36 -61 -8 -50 57 -57 174 -16 255 27
52 94 109 151 127 57 18 130 12 184 -16z"/>
</g>
</svg>
